<mxfile host="app.diagrams.net" modified="2023-10-12T15:17:25.438Z" agent="Mozilla/5.0 (Windows NT 10.0; Win64; x64) AppleWebKit/537.36 (KHTML, like Gecko) Chrome/118.0.0.0 Safari/537.36" etag="1905x9fdeZIsdq9aMVEU" version="22.0.4" type="device">
  <diagram name="Page-1" id="Y7ghewPUeVu550ZwAkcd">
    <mxGraphModel dx="1144" dy="410" grid="0" gridSize="10" guides="1" tooltips="1" connect="1" arrows="1" fold="1" page="0" pageScale="1" pageWidth="850" pageHeight="1100" math="0" shadow="0">
      <root>
        <mxCell id="0" />
        <mxCell id="1" parent="0" />
        <mxCell id="GnMIGPCZ9SeeCmAuqLEz-1" value="Actor" style="shape=umlActor;verticalLabelPosition=bottom;verticalAlign=top;html=1;outlineConnect=0;" vertex="1" parent="1">
          <mxGeometry x="-61" y="267" width="30" height="60" as="geometry" />
        </mxCell>
        <mxCell id="GnMIGPCZ9SeeCmAuqLEz-2" value="api/send/mail" style="shape=step;perimeter=stepPerimeter;whiteSpace=wrap;html=1;fixedSize=1;" vertex="1" parent="1">
          <mxGeometry x="-11" y="250" width="162" height="31" as="geometry" />
        </mxCell>
        <mxCell id="GnMIGPCZ9SeeCmAuqLEz-3" value="api/calculate/neuro" style="shape=step;perimeter=stepPerimeter;whiteSpace=wrap;html=1;fixedSize=1;" vertex="1" parent="1">
          <mxGeometry x="1" y="293" width="162" height="31" as="geometry" />
        </mxCell>
        <mxCell id="GnMIGPCZ9SeeCmAuqLEz-4" value="api/optimize/database" style="shape=step;perimeter=stepPerimeter;whiteSpace=wrap;html=1;fixedSize=1;" vertex="1" parent="1">
          <mxGeometry x="-26" y="332" width="185" height="31" as="geometry" />
        </mxCell>
        <mxCell id="GnMIGPCZ9SeeCmAuqLEz-5" value="Отложенная задача" style="text;html=1;strokeColor=none;fillColor=none;align=center;verticalAlign=middle;whiteSpace=wrap;rounded=0;" vertex="1" parent="1">
          <mxGeometry x="-7" y="205" width="77" height="37" as="geometry" />
        </mxCell>
        <mxCell id="GnMIGPCZ9SeeCmAuqLEz-6" value="Текущей задачи -&amp;gt; сразу" style="text;html=1;strokeColor=none;fillColor=none;align=center;verticalAlign=middle;whiteSpace=wrap;rounded=0;" vertex="1" parent="1">
          <mxGeometry x="81" y="136" width="126" height="34" as="geometry" />
        </mxCell>
        <mxCell id="GnMIGPCZ9SeeCmAuqLEz-7" value="vs" style="text;html=1;strokeColor=none;fillColor=none;align=center;verticalAlign=middle;whiteSpace=wrap;rounded=0;" vertex="1" parent="1">
          <mxGeometry x="40" y="166" width="60" height="30" as="geometry" />
        </mxCell>
        <mxCell id="GnMIGPCZ9SeeCmAuqLEz-8" value="Django Celery" style="text;html=1;strokeColor=none;fillColor=none;align=center;verticalAlign=middle;whiteSpace=wrap;rounded=0;" vertex="1" parent="1">
          <mxGeometry x="242" y="340" width="60" height="30" as="geometry" />
        </mxCell>
        <mxCell id="GnMIGPCZ9SeeCmAuqLEz-9" value="REDIS&lt;br&gt;{key: value}" style="shape=cylinder3;whiteSpace=wrap;html=1;boundedLbl=1;backgroundOutline=1;size=15;" vertex="1" parent="1">
          <mxGeometry x="382" y="383" width="88" height="78" as="geometry" />
        </mxCell>
        <mxCell id="GnMIGPCZ9SeeCmAuqLEz-10" value="" style="shape=flexArrow;endArrow=classic;html=1;rounded=0;" edge="1" parent="1">
          <mxGeometry width="50" height="50" relative="1" as="geometry">
            <mxPoint x="178" y="349" as="sourcePoint" />
            <mxPoint x="252" y="327" as="targetPoint" />
          </mxGeometry>
        </mxCell>
        <mxCell id="GnMIGPCZ9SeeCmAuqLEz-11" value="" style="shape=flexArrow;endArrow=classic;html=1;rounded=0;fillColor=#fff2cc;strokeColor=#d6b656;" edge="1" parent="1">
          <mxGeometry width="50" height="50" relative="1" as="geometry">
            <mxPoint x="299" y="340" as="sourcePoint" />
            <mxPoint x="380" y="388" as="targetPoint" />
          </mxGeometry>
        </mxCell>
        <mxCell id="GnMIGPCZ9SeeCmAuqLEz-12" value="Ожидает" style="text;html=1;strokeColor=#d6b656;fillColor=#fff2cc;align=center;verticalAlign=middle;whiteSpace=wrap;rounded=0;" vertex="1" parent="1">
          <mxGeometry x="341" y="314" width="60" height="30" as="geometry" />
        </mxCell>
        <mxCell id="GnMIGPCZ9SeeCmAuqLEz-13" value="" style="shape=flexArrow;endArrow=classic;html=1;rounded=0;fillColor=#f8cecc;strokeColor=#b85450;" edge="1" parent="1">
          <mxGeometry width="50" height="50" relative="1" as="geometry">
            <mxPoint x="379" y="421" as="sourcePoint" />
            <mxPoint x="278" y="377" as="targetPoint" />
          </mxGeometry>
        </mxCell>
        <mxCell id="GnMIGPCZ9SeeCmAuqLEz-14" value="Выполняется" style="text;html=1;strokeColor=#b85450;fillColor=#f8cecc;align=center;verticalAlign=middle;whiteSpace=wrap;rounded=0;" vertex="1" parent="1">
          <mxGeometry x="298" y="407" width="60" height="30" as="geometry" />
        </mxCell>
        <mxCell id="GnMIGPCZ9SeeCmAuqLEz-15" value="" style="shape=flexArrow;endArrow=classic;html=1;rounded=0;fillColor=#dae8fc;strokeColor=#6c8ebf;" edge="1" parent="1">
          <mxGeometry width="50" height="50" relative="1" as="geometry">
            <mxPoint x="242" y="459" as="sourcePoint" />
            <mxPoint x="323" y="507" as="targetPoint" />
          </mxGeometry>
        </mxCell>
        <mxCell id="GnMIGPCZ9SeeCmAuqLEz-17" value="Статус выполнения" style="text;html=1;strokeColor=#6c8ebf;fillColor=#dae8fc;align=center;verticalAlign=middle;whiteSpace=wrap;rounded=0;" vertex="1" parent="1">
          <mxGeometry x="263" y="447" width="60" height="30" as="geometry" />
        </mxCell>
      </root>
    </mxGraphModel>
  </diagram>
</mxfile>
